<svg xmlns="http://www.w3.org/2000/svg" xmlns:xlink="http://www.w3.org/1999/xlink" width="500" zoomAndPan="magnify" viewBox="0 0 375 374.999991" height="500" preserveAspectRatio="xMidYMid meet" version="1.0"><defs><clipPath id="0e7dceb3f9"><path d="M 116.695312 71.898438 L 258.445312 71.898438 L 258.445312 163.398438 L 116.695312 163.398438 Z M 116.695312 71.898438 " clip-rule="nonzero"/></clipPath><clipPath id="bc7de5893a"><path d="M 234 61 L 270 61 L 270 102 L 234 102 Z M 234 61 " clip-rule="nonzero"/></clipPath><clipPath id="b168a23152"><path d="M 217.234375 70.871094 L 252.375 51.4375 L 269.378906 82.1875 L 234.238281 101.621094 Z M 217.234375 70.871094 " clip-rule="nonzero"/></clipPath><clipPath id="6e799da777"><path d="M 234.804688 61.15625 L 269.378906 82.1875 L 234.238281 101.621094 L 234.804688 61.15625 " clip-rule="nonzero"/></clipPath><clipPath id="453f7b3e8e"><path d="M 234.410156 66.484375 L 275.191406 66.484375 L 275.191406 101.621094 L 234.410156 101.621094 Z M 234.410156 66.484375 " clip-rule="nonzero"/></clipPath><clipPath id="3a2c6d8564"><path d="M 254.710938 66.484375 L 275.015625 101.621094 L 234.410156 101.621094 L 254.710938 66.484375 " clip-rule="nonzero"/></clipPath></defs><path fill="#2196f3" d="M 289.0625 351.5625 L 85.9375 351.5625 C 72.992188 351.5625 62.5 341.070312 62.5 328.125 L 62.5 46.875 C 62.5 33.929688 72.992188 23.4375 85.9375 23.4375 L 234.375 23.4375 L 312.5 101.5625 L 312.5 328.125 C 312.5 341.070312 302.007812 351.5625 289.0625 351.5625 Z M 289.0625 351.5625 " fill-opacity="1" fill-rule="nonzero"/><path fill="#bbdefb" d="M 312.5 101.5625 L 234.375 101.5625 L 234.375 23.4375 Z M 312.5 101.5625 " fill-opacity="1" fill-rule="nonzero"/><path fill="#1565c0" d="M 234.375 101.5625 L 312.5 179.6875 L 312.5 101.5625 Z M 234.375 101.5625 " fill-opacity="1" fill-rule="nonzero"/><path fill="#e3f2fd" d="M 117.1875 179.6875 L 257.8125 179.6875 L 257.8125 195.3125 L 117.1875 195.3125 Z M 117.1875 210.9375 L 257.8125 210.9375 L 257.8125 226.5625 L 117.1875 226.5625 Z M 117.1875 242.1875 L 257.8125 242.1875 L 257.8125 257.8125 L 117.1875 257.8125 Z M 117.1875 273.4375 L 195.3125 273.4375 L 195.3125 289.0625 L 117.1875 289.0625 Z M 117.1875 273.4375 " fill-opacity="1" fill-rule="nonzero"/><g clip-path="url(#0e7dceb3f9)"><path fill="#99aab5" d="M 258.691406 117.648438 C 258.691406 131.386719 226.921875 163.382812 187.746094 163.382812 C 148.5625 163.382812 116.800781 135.3125 116.800781 117.648438 C 116.800781 103.875 148.566406 71.914062 187.746094 71.914062 C 226.921875 71.914062 258.691406 103.871094 258.691406 117.648438 Z M 258.691406 117.648438 " fill-opacity="1" fill-rule="nonzero"/></g><path fill="#f5f8fa" d="M 253.527344 117.648438 C 253.527344 129.722656 224.066406 157.839844 187.742188 157.839844 C 151.410156 157.839844 121.957031 133.164062 121.957031 117.648438 C 121.957031 105.542969 151.410156 77.460938 187.742188 77.460938 C 224.066406 77.457031 253.527344 105.542969 253.527344 117.648438 Z M 253.527344 117.648438 " fill-opacity="1" fill-rule="nonzero"/><path fill="#55acee" d="M 222.9375 117.648438 C 222.9375 118.800781 222.878906 119.949219 222.769531 121.09375 C 222.65625 122.242188 222.484375 123.378906 222.261719 124.507812 C 222.035156 125.636719 221.757812 126.753906 221.421875 127.855469 C 221.089844 128.957031 220.703125 130.042969 220.261719 131.105469 C 219.820312 132.167969 219.328125 133.210938 218.785156 134.226562 C 218.242188 135.242188 217.652344 136.226562 217.011719 137.183594 C 216.371094 138.144531 215.6875 139.066406 214.957031 139.957031 C 214.226562 140.847656 213.453125 141.699219 212.640625 142.515625 C 211.824219 143.328125 210.972656 144.101562 210.082031 144.832031 C 209.191406 145.5625 208.269531 146.246094 207.3125 146.886719 C 206.355469 147.527344 205.367188 148.117188 204.351562 148.660156 C 203.335938 149.203125 202.296875 149.695312 201.234375 150.136719 C 200.167969 150.578125 199.085938 150.964844 197.984375 151.300781 C 196.882812 151.632812 195.765625 151.914062 194.636719 152.136719 C 193.507812 152.363281 192.371094 152.53125 191.222656 152.644531 C 190.078125 152.757812 188.929688 152.8125 187.777344 152.8125 C 186.625 152.8125 185.476562 152.757812 184.332031 152.644531 C 183.1875 152.53125 182.046875 152.363281 180.917969 152.136719 C 179.789062 151.914062 178.675781 151.632812 177.570312 151.300781 C 176.46875 150.964844 175.386719 150.578125 174.324219 150.136719 C 173.257812 149.695312 172.21875 149.203125 171.203125 148.660156 C 170.1875 148.117188 169.203125 147.527344 168.246094 146.886719 C 167.289062 146.246094 166.363281 145.5625 165.472656 144.832031 C 164.582031 144.101562 163.730469 143.328125 162.917969 142.515625 C 162.101562 141.699219 161.332031 140.847656 160.601562 139.957031 C 159.871094 139.066406 159.183594 138.144531 158.542969 137.183594 C 157.90625 136.226562 157.3125 135.242188 156.769531 134.226562 C 156.226562 133.210938 155.734375 132.167969 155.296875 131.105469 C 154.855469 130.042969 154.46875 128.957031 154.132812 127.855469 C 153.796875 126.753906 153.519531 125.636719 153.292969 124.507812 C 153.070312 123.378906 152.902344 122.242188 152.789062 121.09375 C 152.675781 119.949219 152.617188 118.800781 152.617188 117.648438 C 152.617188 116.496094 152.675781 115.347656 152.789062 114.203125 C 152.902344 113.054688 153.070312 111.917969 153.292969 110.789062 C 153.519531 109.660156 153.796875 108.542969 154.132812 107.441406 C 154.46875 106.339844 154.855469 105.253906 155.296875 104.191406 C 155.734375 103.128906 156.226562 102.089844 156.769531 101.070312 C 157.3125 100.054688 157.90625 99.070312 158.542969 98.113281 C 159.183594 97.15625 159.871094 96.230469 160.601562 95.339844 C 161.332031 94.449219 162.101562 93.597656 162.917969 92.785156 C 163.730469 91.96875 164.582031 91.195312 165.472656 90.464844 C 166.363281 89.734375 167.289062 89.050781 168.246094 88.410156 C 169.203125 87.769531 170.1875 87.179688 171.203125 86.636719 C 172.21875 86.09375 173.257812 85.601562 174.324219 85.160156 C 175.386719 84.71875 176.46875 84.332031 177.570312 84 C 178.675781 83.664062 179.789062 83.382812 180.917969 83.160156 C 182.046875 82.933594 183.1875 82.765625 184.332031 82.652344 C 185.476562 82.539062 186.625 82.484375 187.777344 82.484375 C 188.929688 82.484375 190.078125 82.539062 191.222656 82.652344 C 192.371094 82.765625 193.507812 82.933594 194.636719 83.160156 C 195.765625 83.382812 196.882812 83.664062 197.984375 84 C 199.085938 84.332031 200.167969 84.71875 201.234375 85.160156 C 202.296875 85.601562 203.335938 86.09375 204.351562 86.636719 C 205.367188 87.179688 206.355469 87.769531 207.3125 88.410156 C 208.269531 89.050781 209.191406 89.734375 210.082031 90.464844 C 210.972656 91.195312 211.824219 91.96875 212.640625 92.785156 C 213.453125 93.597656 214.226562 94.449219 214.957031 95.339844 C 215.6875 96.230469 216.371094 97.15625 217.011719 98.113281 C 217.652344 99.070312 218.242188 100.054688 218.785156 101.070312 C 219.328125 102.089844 219.820312 103.128906 220.261719 104.191406 C 220.703125 105.253906 221.089844 106.339844 221.421875 107.441406 C 221.757812 108.542969 222.035156 109.660156 222.261719 110.789062 C 222.484375 111.917969 222.65625 113.054688 222.769531 114.203125 C 222.878906 115.347656 222.9375 116.496094 222.9375 117.648438 Z M 222.9375 117.648438 " fill-opacity="1" fill-rule="nonzero"/><path fill="#292f33" d="M 207.347656 117.648438 C 207.347656 118.289062 207.316406 118.929688 207.253906 119.566406 C 207.191406 120.207031 207.097656 120.839844 206.972656 121.46875 C 206.847656 122.097656 206.691406 122.71875 206.507812 123.332031 C 206.320312 123.945312 206.105469 124.546875 205.859375 125.140625 C 205.613281 125.730469 205.339844 126.308594 205.039062 126.875 C 204.734375 127.441406 204.40625 127.992188 204.050781 128.523438 C 203.695312 129.054688 203.3125 129.570312 202.90625 130.066406 C 202.5 130.5625 202.070312 131.035156 201.617188 131.488281 C 201.164062 131.941406 200.6875 132.371094 200.195312 132.78125 C 199.699219 133.1875 199.183594 133.566406 198.652344 133.921875 C 198.117188 134.28125 197.570312 134.609375 197.003906 134.910156 C 196.4375 135.214844 195.859375 135.488281 195.265625 135.734375 C 194.675781 135.976562 194.074219 136.195312 193.460938 136.378906 C 192.847656 136.566406 192.226562 136.722656 191.597656 136.847656 C 190.96875 136.972656 190.335938 137.066406 189.695312 137.128906 C 189.058594 137.191406 188.417969 137.222656 187.777344 137.222656 C 187.136719 137.222656 186.496094 137.191406 185.859375 137.128906 C 185.222656 137.066406 184.589844 136.972656 183.960938 136.847656 C 183.332031 136.722656 182.710938 136.566406 182.097656 136.378906 C 181.484375 136.195312 180.882812 135.976562 180.289062 135.734375 C 179.695312 135.488281 179.117188 135.214844 178.550781 134.910156 C 177.988281 134.609375 177.4375 134.28125 176.90625 133.921875 C 176.371094 133.566406 175.859375 133.1875 175.363281 132.78125 C 174.867188 132.371094 174.394531 131.941406 173.941406 131.488281 C 173.484375 131.035156 173.054688 130.5625 172.648438 130.066406 C 172.242188 129.570312 171.863281 129.054688 171.503906 128.523438 C 171.148438 127.992188 170.820312 127.441406 170.519531 126.875 C 170.214844 126.308594 169.941406 125.730469 169.695312 125.140625 C 169.453125 124.546875 169.234375 123.945312 169.050781 123.332031 C 168.863281 122.71875 168.707031 122.097656 168.582031 121.46875 C 168.457031 120.839844 168.363281 120.207031 168.300781 119.566406 C 168.238281 118.929688 168.207031 118.289062 168.207031 117.648438 C 168.207031 117.007812 168.238281 116.367188 168.300781 115.730469 C 168.363281 115.09375 168.457031 114.457031 168.582031 113.832031 C 168.707031 113.203125 168.863281 112.582031 169.050781 111.964844 C 169.234375 111.351562 169.453125 110.75 169.695312 110.15625 C 169.941406 109.566406 170.214844 108.988281 170.519531 108.421875 C 170.820312 107.855469 171.148438 107.308594 171.503906 106.773438 C 171.863281 106.242188 172.242188 105.726562 172.648438 105.230469 C 173.054688 104.734375 173.484375 104.261719 173.941406 103.808594 C 174.394531 103.355469 174.867188 102.925781 175.363281 102.519531 C 175.859375 102.109375 176.371094 101.730469 176.90625 101.375 C 177.4375 101.015625 177.988281 100.6875 178.550781 100.386719 C 179.117188 100.085938 179.695312 99.808594 180.289062 99.566406 C 180.882812 99.320312 181.484375 99.105469 182.097656 98.917969 C 182.710938 98.730469 183.332031 98.574219 183.960938 98.449219 C 184.589844 98.324219 185.222656 98.230469 185.859375 98.167969 C 186.496094 98.105469 187.136719 98.074219 187.777344 98.074219 C 188.417969 98.074219 189.058594 98.105469 189.695312 98.167969 C 190.335938 98.230469 190.96875 98.324219 191.597656 98.449219 C 192.226562 98.574219 192.847656 98.730469 193.460938 98.917969 C 194.074219 99.105469 194.675781 99.320312 195.265625 99.566406 C 195.859375 99.808594 196.4375 100.085938 197.003906 100.386719 C 197.570312 100.6875 198.117188 101.015625 198.652344 101.375 C 199.183594 101.730469 199.699219 102.109375 200.195312 102.519531 C 200.6875 102.925781 201.164062 103.355469 201.617188 103.808594 C 202.070312 104.261719 202.5 104.734375 202.90625 105.230469 C 203.3125 105.726562 203.695312 106.242188 204.050781 106.773438 C 204.40625 107.308594 204.734375 107.855469 205.039062 108.421875 C 205.339844 108.988281 205.613281 109.566406 205.859375 110.15625 C 206.105469 110.75 206.320312 111.351562 206.507812 111.964844 C 206.691406 112.582031 206.847656 113.203125 206.972656 113.832031 C 207.097656 114.457031 207.191406 115.09375 207.253906 115.730469 C 207.316406 116.367188 207.347656 117.007812 207.347656 117.648438 Z M 207.347656 117.648438 " fill-opacity="1" fill-rule="nonzero"/><path fill="#f5f8fa" d="M 208.5625 105.175781 C 208.5625 105.722656 208.507812 106.261719 208.402344 106.796875 C 208.296875 107.332031 208.136719 107.855469 207.929688 108.359375 C 207.722656 108.863281 207.464844 109.339844 207.160156 109.796875 C 206.859375 110.25 206.511719 110.667969 206.128906 111.054688 C 205.742188 111.441406 205.320312 111.785156 204.867188 112.089844 C 204.414062 112.394531 203.933594 112.648438 203.429688 112.859375 C 202.925781 113.066406 202.40625 113.226562 201.871094 113.332031 C 201.335938 113.4375 200.792969 113.492188 200.25 113.492188 C 199.703125 113.492188 199.164062 113.4375 198.625 113.332031 C 198.089844 113.226562 197.570312 113.066406 197.066406 112.859375 C 196.5625 112.648438 196.082031 112.394531 195.628906 112.089844 C 195.175781 111.785156 194.757812 111.441406 194.371094 111.054688 C 193.984375 110.667969 193.640625 110.25 193.335938 109.796875 C 193.03125 109.339844 192.777344 108.863281 192.566406 108.359375 C 192.359375 107.855469 192.203125 107.332031 192.09375 106.796875 C 191.988281 106.261719 191.933594 105.722656 191.933594 105.175781 C 191.933594 104.628906 191.988281 104.089844 192.09375 103.554688 C 192.203125 103.019531 192.359375 102.5 192.566406 101.992188 C 192.777344 101.488281 193.03125 101.011719 193.335938 100.554688 C 193.640625 100.101562 193.984375 99.683594 194.371094 99.296875 C 194.757812 98.910156 195.175781 98.566406 195.628906 98.261719 C 196.082031 97.957031 196.5625 97.703125 197.066406 97.492188 C 197.570312 97.285156 198.089844 97.128906 198.625 97.019531 C 199.164062 96.914062 199.703125 96.859375 200.25 96.859375 C 200.792969 96.859375 201.335938 96.914062 201.871094 97.019531 C 202.40625 97.128906 202.925781 97.285156 203.429688 97.492188 C 203.933594 97.703125 204.414062 97.957031 204.867188 98.261719 C 205.320312 98.566406 205.742188 98.910156 206.128906 99.296875 C 206.511719 99.683594 206.859375 100.101562 207.160156 100.554688 C 207.464844 101.011719 207.722656 101.488281 207.929688 101.992188 C 208.136719 102.5 208.296875 103.019531 208.402344 103.554688 C 208.507812 104.089844 208.5625 104.628906 208.5625 105.175781 Z M 208.5625 105.175781 " fill-opacity="1" fill-rule="nonzero"/><g clip-path="url(#bc7de5893a)"><g clip-path="url(#b168a23152)"><g clip-path="url(#6e799da777)"><path fill="#bbdefb" d="M 217.234375 70.871094 L 252.375 51.4375 L 269.378906 82.1875 L 234.238281 101.621094 Z M 217.234375 70.871094 " fill-opacity="1" fill-rule="nonzero"/></g></g></g><g clip-path="url(#453f7b3e8e)"><g clip-path="url(#3a2c6d8564)"><path fill="#bbdefb" d="M 234.410156 66.484375 L 275.191406 66.484375 L 275.191406 101.621094 L 234.410156 101.621094 Z M 234.410156 66.484375 " fill-opacity="1" fill-rule="nonzero"/></g></g></svg>